PathFileType	4	(X/Y/Z)	./resultDataOpenSim/trcMotMarkerGrf/sub10/qtm-03-06.trc
DataRate	CameraRate	NumFrames	NumMarkers	Units	OrigDataRate	OrigDataStartFrame	OrigNumFrames
250.000000	250.000000	11	24	m	250.000000	190	504
Frame#	Time	L.Toe.Tip			R.Toe.Tip			L.Ankle.Lat			R.Ankle.Lat			L.Ankle.Med			R.Ankle.Med			L.Heel			R.Heel			L.Knee.Lat			R.Knee.Lat			L.Knee.Med			R.Knee.Med			L.Thigh.Upper			R.Thigh.Upper			L.ASIS			R.ASIS			V.Sacral			L.Acromium			R.Acromium			C7			L.Elbow			R.Elbow			L.Wrist.Lat			R.Wrist.Lat
		X1	Y1	Z1	X2	Y2	Z2	X3	Y3	Z3	X4	Y4	Z4	X5	Y5	Z5	X6	Y6	Z6	X7	Y7	Z7	X8	Y8	Z8	X9	Y9	Z9	X10	Y10	Z10	X11	Y11	Z11	X12	Y12	Z12	X13	Y13	Z13	X14	Y14	Z14	X15	Y15	Z15	X16	Y16	Z16	X17	Y17	Z17	X18	Y18	Z18	X19	Y19	Z19	X20	Y20	Z20	X21	Y21	Z21	X22	Y22	Z22	X23	Y23	Z23	X24	Y24	Z24

190	0.756	0.00084673673	-0.0087974048	-0.13387359	-0.81792753	0.037168268	-0.029776933	-0.1333661	0.019792656	-0.18361458	-0.88330326	0.16169439	-0.009426735	-0.14163572	0.040699632	-0.10076999	-0.83457341	0.14931796	-0.08173765	-0.20074278	-0.011624886	-0.15062956	-0.92110277	0.17730928	-0.069469252	-0.11429486	0.41332612	-0.18933368	-0.56257861	0.39122736	0.0412168	-0.13114054	0.38700189	-0.070587504	-0.51591528	0.36756547	-0.075323563	-0.24364206	0.77542374	-0.25749365	-0.43062905	0.75995625	0.091840971	-0.23150698	0.86659593	-0.16418561	-0.31828016	0.84082229	0.059167676	-0.46265766	0.87366275	-0.13156461	-0.35022539	1.3186893	-0.24583581	-0.40815864	1.3294417	0.076733003	-0.46302237	1.3453875	-0.10742387	-0.48138758	1.0169074	-0.32036084	-0.37154107	0.96663352	0.11932779	-0.4447191	0.78615356	-0.37853404	-0.12840867	0.90600139	0.10784639
191	0.76	0.00092274632	-0.0088668001	-0.13405536	-0.81590607	0.037300131	-0.02951505	-0.13302222	0.019661605	-0.18417671	-0.8750801	0.1658806	-0.0091673052	-0.14144013	0.04090174	-0.10132819	-0.82582543	0.15144009	-0.08043858	-0.20065449	-0.011664003	-0.15135551	-0.91135915	0.18296282	-0.069323852	-0.1073206	0.41406005	-0.18885295	-0.55088732	0.38956931	0.042358547	-0.12519746	0.38834247	-0.07037281	-0.50361822	0.36433203	-0.073750952	-0.23712174	0.77643942	-0.2581535	-0.42218692	0.75803145	0.092189816	-0.22474047	0.86770872	-0.16527234	-0.31047331	0.8398849	0.057789966	-0.45659721	0.87357883	-0.13002661	-0.34350743	1.3186079	-0.24641261	-0.40063343	1.3295272	0.076246214	-0.45593018	1.3455156	-0.10777597	-0.47329533	1.0162648	-0.3209006	-0.36633365	0.96648208	0.11830854	-0.43629743	0.78558961	-0.37911911	-0.12380992	0.9035638	0.1082126
192	0.764	0.00097331499	-0.00893474	-0.13421106	-0.8133043	0.037905236	-0.029344098	-0.13274188	0.019425518	-0.18468598	-0.86637867	0.17006227	-0.008799056	-0.14121712	0.040916318	-0.10173244	-0.81689748	0.15377351	-0.079247785	-0.20061291	-0.011761767	-0.15187591	-0.90145684	0.18855786	-0.068975812	-0.10116014	0.41420344	-0.18873751	-0.53905064	0.38781515	0.043723816	-0.11928783	0.38933702	-0.070399524	-0.49093319	0.3608126	-0.07213077	-0.23077606	0.7772919	-0.25879826	-0.41389427	0.75609895	0.092471798	-0.21809331	0.86884002	-0.16634279	-0.30280931	0.83901628	0.056435426	-0.45078797	0.87364852	-0.12830863	-0.3367576	1.3186016	-0.24694186	-0.39310154	1.329659	0.075737163	-0.44890706	1.3456478	-0.10805	-0.46521817	1.0156569	-0.32147036	-0.36118564	0.96644204	0.11738305	-0.42765824	0.78507849	-0.37963325	-0.11931037	0.9010803	0.10859595
193	0.768	0.0010063099	-0.0089967713	-0.13433434	-0.81014249	0.03907195	-0.029264961	-0.13247579	0.019073137	-0.18508422	-0.85718019	0.17425678	-0.0082888759	-0.1409587	0.04075625	-0.10197394	-0.80779674	0.1561991	-0.078147669	-0.2006109	-0.011889164	-0.1522022	-0.89132861	0.19417127	-0.068478141	-0.095847627	0.41381248	-0.1889918	-0.52708675	0.38598085	0.045242357	-0.11351787	0.38987378	-0.07068952	-0.47789916	0.35705432	-0.070489334	-0.22459557	0.77800317	-0.25939934	-0.40572762	0.75418411	0.092675889	-0.21157275	0.86993981	-0.16737785	-0.29518988	0.83823109	0.055047218	-0.44524969	0.87387505	-0.12649168	-0.32998995	1.3186644	-0.2474278	-0.38559993	1.3298297	0.075201875	-0.44196376	1.3457803	-0.1082665	-0.45723188	1.0151018	-0.32193287	-0.35605192	0.96651336	0.11652951	-0.41880866	0.7846225	-0.38008739	-0.11491153	0.89854976	0.10900509
194	0.772	0.0010294194	-0.0090506161	-0.13442428	-0.80651728	0.040751191	-0.029217023	-0.1322032	0.018620995	-0.18532124	-0.84756753	0.17847629	-0.0076658647	-0.14069978	0.040449454	-0.10208653	-0.79850657	0.15867776	-0.077141215	-0.20063758	-0.012029911	-0.15234777	-0.8809141	0.1998727	-0.067865932	-0.091351217	0.41300897	-0.18954152	-0.51498898	0.38407936	0.046802573	-0.10803307	0.3899087	-0.071248373	-0.46454084	0.35311894	-0.068831121	-0.21857283	0.77858559	-0.2599357	-0.39767208	0.75232207	0.09279896	-0.20519433	0.87099371	-0.16834834	-0.28755259	0.837541	0.053613375	-0.43991121	0.874171	-0.12469918	-0.32325262	1.3187918	-0.24787405	-0.37814842	1.3300333	0.074646489	-0.43511668	1.3459106	-0.10846143	-0.44933891	1.0146116	-0.3222831	-0.35091783	0.96670777	0.11575051	-0.40976248	0.78422972	-0.38048805	-0.110624	0.89597377	0.10944253
195	0.776	0.0010486925	-0.0090964006	-0.13448188	-0.80253884	0.042814988	-0.029122135	-0.13193469	0.018129402	-0.1853909	-0.83761543	0.18271175	-0.0069811364	-0.14046061	0.040035565	-0.10209585	-0.78898057	0.16126423	-0.076249504	-0.20068353	-0.012168088	-0.1523286	-0.87023641	0.20568703	-0.067103365	-0.087595606	0.41190589	-0.19028883	-0.50276233	0.38211442	0.048318175	-0.10296347	0.38948	-0.072021671	-0.45089322	0.34908103	-0.067137339	-0.21270002	0.77904805	-0.26040723	-0.3897251	0.75054593	0.092843679	-0.19897466	0.87201925	-0.16923043	-0.27990562	0.83695983	0.052178254	-0.43434744	0.87424274	-0.12325579	-0.31656616	1.3189869	-0.24828664	-0.3707423	1.3302693	0.074099254	-0.42837786	1.3460422	-0.10866249	-0.44149453	1.0141895	-0.32260277	-0.34579341	0.96704179	0.11504635	-0.40055575	0.78390557	-0.38082294	-0.10645775	0.89335774	0.10991052
196	0.78	0.0010649595	-0.0091347645	-0.13451138	-0.79828047	0.045160029	-0.028933468	-0.13169143	0.017671264	-0.1853321	-0.8273407	0.18693801	-0.0062777554	-0.14021464	0.039562179	-0.10199918	-0.77918182	0.1640149	-0.075481233	-0.20074428	-0.012285554	-0.15217347	-0.85924576	0.21161872	-0.066145899	-0.084469579	0.4105898	-0.19115659	-0.49042102	0.3800928	0.049742642	-0.098381668	0.38866493	-0.072893525	-0.43700319	0.34503719	-0.065393274	-0.20695411	0.779408	-0.26083286	-0.38189301	0.74888313	0.092812274	-0.19291912	0.87304346	-0.17001333	-0.27238152	0.83652105	0.050857082	-0.42778444	0.8736621	-0.12263577	-0.30990902	1.3192563	-0.24867164	-0.36337407	1.3305444	0.073591933	-0.42174789	1.3461909	-0.10887823	-0.43366805	1.0138343	-0.32294779	-0.34069547	0.96751527	0.11440519	-0.39123442	0.78365157	-0.38107157	-0.10241182	0.89070681	0.11041681
197	0.784	0.0010744951	-0.0091664373	-0.13452222	-0.79373397	0.047765524	-0.028643944	-0.13148273	0.017290655	-0.1852041	-0.81676355	0.19113723	-0.0055833373	-0.139925	0.039077604	-0.1018012	-0.76907956	0.1669128	-0.074803445	-0.20081735	-0.012367643	-0.15193549	-0.84766969	0.21767973	-0.065041188	-0.081842903	0.40914083	-0.19209244	-0.47799567	0.37805603	0.051086268	-0.094320785	0.38753054	-0.073739759	-0.42293266	0.34112306	-0.063627814	-0.20128256	0.77970638	-0.26124325	-0.37418391	0.74736223	0.092698936	-0.1870183	0.87407857	-0.17070115	-0.26517784	0.83628728	0.049783831	-0.41999378	0.87238641	-0.12294812	-0.30326531	1.3196046	-0.2490406	-0.35606661	1.3308666	0.073137435	-0.41521543	1.3463846	-0.1091	-0.42584969	1.0135412	-0.32333144	-0.33563265	0.96810372	0.11380862	-0.38181793	0.78346878	-0.3812333	-0.098470427	0.88802304	0.11096542
198	0.788	0.0010751299	-0.0091928432	-0.13452747	-0.78880295	0.050666305	-0.028252751	-0.13129951	0.016988271	-0.18506411	-0.80593114	0.19530447	-0.0049148308	-0.13960065	0.038627302	-0.10155392	-0.7586036	0.16987331	-0.074153851	-0.2008949	-0.012409096	-0.15169121	-0.83518653	0.22381732	-0.063951651	-0.079590269	0.40764269	-0.19305494	-0.46556334	0.37609239	0.052440677	-0.09080927	0.3861412	-0.074486854	-0.40877793	0.33753055	-0.061921505	-0.19561851	0.78001291	-0.2616781	-0.36659979	0.74602253	0.092496357	-0.1812511	0.87511181	-0.17131403	-0.25837265	0.83634122	0.048984162	-0.41212461	0.8711694	-0.12360341	-0.29664223	1.3200379	-0.24940974	-0.34886243	1.3312413	0.072731294	-0.40875702	1.3466558	-0.10931585	-0.41803687	1.0133061	-0.32375249	-0.33060297	0.96878144	0.11324359	-0.37230358	0.7833578	-0.38132352	-0.094611785	0.8853106	0.11154532
199	0.792	0.0010691308	-0.0092149702	-0.13453871	-0.783335	0.053886733	-0.027732249	-0.13112294	0.016736373	-0.18495384	-0.79483689	0.19943502	-0.0042730364	-0.13929031	0.038250573	-0.10133847	-0.74769613	0.17282425	-0.073491474	-0.20096388	-0.012415847	-0.15151399	-0.82173488	0.22984283	-0.063086389	-0.077606138	0.40617147	-0.19399642	-0.45319451	0.37428569	0.053880028	-0.087850494	0.38458889	-0.07512221	-0.39467063	0.33448196	-0.060391914	-0.18993298	0.78040876	-0.26217984	-0.35913925	0.74491706	0.092209692	-0.17559096	0.87611343	-0.17188332	-0.2518915	0.83676422	0.048364217	-0.40594858	0.87103935	-0.1236496	-0.29004303	1.3205614	-0.24978228	-0.34178409	1.3316761	0.072361521	-0.40233803	1.3470296	-0.10953261	-0.41022849	1.0131356	-0.32420757	-0.32559748	0.96954475	0.11270934	-0.36270827	0.78331534	-0.38134232	-0.09082093	0.88257777	0.11213178
200	0.796	0.0010591316	-0.0092331333	-0.1345612	-0.77714155	0.057405602	-0.027029604	-0.13093889	0.016504811	-0.18489532	-0.78342066	0.20353009	-0.0036458894	-0.13903374	0.037969411	-0.10121513	-0.73642965	0.17577587	-0.07282361	-0.20101458	-0.012401736	-0.15144138	-0.80760672	0.23553639	-0.062554274	-0.075801539	0.40478713	-0.19484204	-0.44085782	0.37265294	0.055316147	-0.085364892	0.38298996	-0.075649423	-0.38072271	0.33214676	-0.059140324	-0.18427446	0.78094932	-0.262776	-0.35181069	0.74410514	0.091856371	-0.17001133	0.87705761	-0.17243658	-0.24567972	0.8375823	0.04787163	-0.40204434	0.87222606	-0.12258392	-0.28344786	1.3211638	-0.25013436	-0.33482864	1.332189	0.072015332	-0.39592161	1.3475232	-0.10977676	-0.40242396	1.0130455	-0.32468762	-0.32060437	0.97040512	0.1122137	-0.3530627	0.78333995	-0.38127929	-0.087102653	0.87983101	0.11270922
